<?xml version="1.0" encoding="utf-8" standalone="no"?>
<!DOCTYPE svg PUBLIC "-//W3C//DTD SVG 1.1//EN"
  "http://www.w3.org/Graphics/SVG/1.1/DTD/svg11.dtd">
<!-- Created with matplotlib (https://matplotlib.org/) -->
<svg height="320.186285pt" version="1.1" viewBox="0 0 455.916413 320.186285" width="455.916413pt" xmlns="http://www.w3.org/2000/svg" xmlns:xlink="http://www.w3.org/1999/xlink">
 <defs>
  <style type="text/css">
*{stroke-linecap:butt;stroke-linejoin:round;}
  </style>
 </defs>
 <g id="figure_1">
  <g id="patch_1">
   <path d="M 0 320.186285 
L 455.916413 320.186285 
L 455.916413 0 
L 0 0 
z
" style="fill:#ffffff;"/>
  </g>
  <g id="axes_1">
   <g id="patch_2">
    <path d="M 89.062742 310.647461 
L 390.171379 310.647461 
L 390.171379 9.538824 
L 89.062742 9.538824 
z
" style="fill:#ffffff;"/>
   </g>
   <g id="patch_3">
    <path clip-path="url(#p8e2f92b3a0)" d="M 239.61706 296.960704 
C 275.914762 296.960704 310.730691 282.539475 336.397042 256.873124 
C 362.063393 231.206773 376.484623 196.390844 376.484623 160.093142 
C 376.484623 123.795441 362.063393 88.979512 336.397042 63.313161 
C 310.730691 37.64681 275.914762 23.22558 239.61706 23.22558 
C 203.319359 23.22558 168.50343 37.64681 142.837079 63.313161 
C 117.170728 88.979512 102.749498 123.795441 102.749498 160.093142 
C 102.749498 196.390844 117.170728 231.206773 142.837079 256.873124 
C 168.50343 282.539475 203.319359 296.960704 239.61706 296.960704 
z
" style="fill-opacity:0.05;stroke:#cccccc;stroke-dasharray:3.7,1.6;stroke-dashoffset:0;stroke-linejoin:miter;"/>
   </g>
   <g id="patch_4">
    <path clip-path="url(#p8e2f92b3a0)" d="M 239.61706 201.153411 
C 250.506371 201.153411 260.95115 196.827042 268.651055 189.127137 
C 276.35096 181.427231 280.677329 170.982453 280.677329 160.093142 
C 280.677329 149.203832 276.35096 138.759053 268.651055 131.059148 
C 260.95115 123.359243 250.506371 119.032874 239.61706 119.032874 
C 228.72775 119.032874 218.282971 123.359243 210.583066 131.059148 
C 202.883161 138.759053 198.556792 149.203832 198.556792 160.093142 
C 198.556792 170.982453 202.883161 181.427231 210.583066 189.127137 
C 218.282971 196.827042 228.72775 201.153411 239.61706 201.153411 
z
" style="fill:none;stroke:#cccccc;stroke-linejoin:miter;"/>
   </g>
   <g id="patch_5">
    <path clip-path="url(#p8e2f92b3a0)" d="M 239.61706 173.779899 
C 243.246831 173.779899 246.728424 172.337776 249.295059 169.77114 
C 251.861694 167.204505 253.303817 163.722913 253.303817 160.093142 
C 253.303817 156.463372 251.861694 152.981779 249.295059 150.415144 
C 246.728424 147.848509 243.246831 146.406386 239.61706 146.406386 
C 235.98729 146.406386 232.505697 147.848509 229.939062 150.415144 
C 227.372427 152.981779 225.930304 156.463372 225.930304 160.093142 
C 225.930304 163.722913 227.372427 167.204505 229.939062 169.77114 
C 232.505697 172.337776 235.98729 173.779899 239.61706 173.779899 
z
" style="fill:none;stroke:#cccccc;stroke-linejoin:miter;"/>
   </g>
   <g id="patch_6">
    <path clip-path="url(#p8e2f92b3a0)" d="M 239.61706 160.093142 
L 239.61706 160.093142 
L 239.61706 160.093142 
L 239.61706 160.093142 
z
" style="fill:#ff0000;fill-opacity:0.2;stroke:#ff0000;stroke-linejoin:miter;stroke-width:0.5;"/>
   </g>
   <g id="patch_7">
    <path clip-path="url(#p8e2f92b3a0)" d="M 294.880424 113.491281 
L 294.880424 124.577573 
L 294.880366 124.577573 
L 294.880366 113.491281 
z
" style="fill:#ff0000;fill-opacity:0.2;stroke:#ff0000;stroke-linejoin:miter;stroke-width:0.5;"/>
   </g>
   <g id="patch_8">
    <path clip-path="url(#p8e2f92b3a0)" d="M 250.105845 137.126009 
L 250.105845 137.126066 
L 250.105727 137.126066 
L 250.105727 137.126009 
z
" style="fill:#ff0000;fill-opacity:0.2;stroke:#ff0000;stroke-linejoin:miter;stroke-width:0.5;"/>
   </g>
   <g id="patch_9">
    <path clip-path="url(#p8e2f92b3a0)" d="M 212.293861 128.560439 
L 212.293861 128.560478 
L 212.293807 128.560478 
L 212.293807 128.560439 
z
" style="fill:#0000ff;fill-opacity:0.2;stroke:#0000ff;stroke-linejoin:miter;stroke-width:0.5;"/>
   </g>
   <g id="patch_10">
    <path clip-path="url(#p8e2f92b3a0)" d="M 215.861508 153.117857 
L 215.861508 153.117892 
L 215.861451 153.117892 
L 215.861451 153.117857 
z
" style="fill:#ff0000;fill-opacity:0.2;stroke:#ff0000;stroke-linejoin:miter;stroke-width:0.5;"/>
   </g>
   <g id="patch_11">
    <path clip-path="url(#p8e2f92b3a0)" d="M 224.177934 267.475068 
L 224.177934 267.475138 
L 224.177797 267.475138 
L 224.177797 267.475068 
z
" style="fill:#ff0000;fill-opacity:0.2;stroke:#ff0000;stroke-linejoin:miter;stroke-width:0.5;"/>
   </g>
   <g id="patch_12">
    <path clip-path="url(#p8e2f92b3a0)" d="M 296.473969 284.592226 
L 296.473969 284.592286 
L 296.473832 284.592286 
L 296.473832 284.592226 
z
" style="fill:#0000ff;fill-opacity:0.2;stroke:#0000ff;stroke-linejoin:miter;stroke-width:0.5;"/>
   </g>
   <g id="line2d_1">
    <path clip-path="url(#p8e2f92b3a0)" d="M 239.61706 160.093142 
L 376.484623 160.093142 
" style="fill:none;stroke:#333333;stroke-linecap:square;stroke-width:0.5;"/>
   </g>
   <g id="line2d_2">
    <path clip-path="url(#p8e2f92b3a0)" d="M 239.61706 160.093142 
L 239.61706 160.093142 
" style="fill:none;stroke:#ff0000;stroke-linecap:square;stroke-width:0.5;"/>
   </g>
   <g id="line2d_3">
    <path clip-path="url(#p8e2f92b3a0)" d="M 239.61706 160.093142 
L 239.61706 160.093142 
" style="fill:none;stroke:#ff0000;stroke-linecap:square;stroke-width:0.5;"/>
   </g>
   <g id="line2d_4">
    <path clip-path="url(#p8e2f92b3a0)" d="M 239.61706 157.355791 
L 239.61706 162.830494 
" style="fill:none;stroke:#ff0000;stroke-linecap:square;stroke-width:0.5;"/>
   </g>
   <g id="line2d_5">
    <path clip-path="url(#p8e2f92b3a0)" d="M 239.61706 157.355791 
L 239.61706 162.830494 
" style="fill:none;stroke:#ff0000;stroke-linecap:square;stroke-width:0.5;"/>
   </g>
   <g id="line2d_6">
    <path clip-path="url(#p8e2f92b3a0)" d="M 239.61706 160.093142 
L 239.61706 160.093142 
" style="fill:none;stroke:#ff0000;stroke-linecap:square;stroke-width:0.5;"/>
   </g>
   <g id="line2d_7">
    <path clip-path="url(#p8e2f92b3a0)" d="M 239.61706 160.093142 
L 239.61706 160.093142 
" style="fill:none;stroke:#ff0000;stroke-linecap:square;stroke-width:0.5;"/>
   </g>
   <g id="line2d_8">
    <path clip-path="url(#p8e2f92b3a0)" d="M 242.354412 160.093142 
L 236.879709 160.093142 
" style="fill:none;stroke:#ff0000;stroke-linecap:square;stroke-width:0.5;"/>
   </g>
   <g id="line2d_9">
    <path clip-path="url(#p8e2f92b3a0)" d="M 242.354412 160.093142 
L 236.879709 160.093142 
" style="fill:none;stroke:#ff0000;stroke-linecap:square;stroke-width:0.5;"/>
   </g>
   <g id="line2d_10">
    <path clip-path="url(#p8e2f92b3a0)" d="M 236.879709 160.093142 
L 242.354412 160.093142 
" style="fill:none;stroke:#ff0000;stroke-linecap:square;stroke-width:0.5;"/>
   </g>
   <g id="line2d_11">
    <path clip-path="url(#p8e2f92b3a0)" d="M 239.61706 162.830494 
L 239.61706 157.355791 
" style="fill:none;stroke:#ff0000;stroke-linecap:square;stroke-width:0.5;"/>
   </g>
   <g id="line2d_12">
    <path clip-path="url(#p8e2f92b3a0)" d="M 239.61706 160.093142 
L 354.757381 86.096952 
" style="fill:none;stroke:#333333;stroke-linecap:square;stroke-width:0.5;"/>
   </g>
   <g id="line2d_13">
    <path clip-path="url(#p8e2f92b3a0)" d="M 294.880366 124.577554 
L 294.880337 124.577554 
" style="fill:none;stroke:#ff0000;stroke-linecap:square;stroke-width:0.5;"/>
   </g>
   <g id="line2d_14">
    <path clip-path="url(#p8e2f92b3a0)" d="M 294.880424 124.577554 
L 294.880453 124.577554 
" style="fill:none;stroke:#ff0000;stroke-linecap:square;stroke-width:0.5;"/>
   </g>
   <g id="line2d_15">
    <path clip-path="url(#p8e2f92b3a0)" d="M 294.880453 121.840202 
L 294.880453 127.314905 
" style="fill:none;stroke:#ff0000;stroke-linecap:square;stroke-width:0.5;"/>
   </g>
   <g id="line2d_16">
    <path clip-path="url(#p8e2f92b3a0)" d="M 294.880337 121.840202 
L 294.880337 127.314905 
" style="fill:none;stroke:#ff0000;stroke-linecap:square;stroke-width:0.5;"/>
   </g>
   <g id="line2d_17">
    <path clip-path="url(#p8e2f92b3a0)" d="M 294.880395 124.577573 
L 294.880395 124.577591 
" style="fill:none;stroke:#ff0000;stroke-linecap:square;stroke-width:0.5;"/>
   </g>
   <g id="line2d_18">
    <path clip-path="url(#p8e2f92b3a0)" d="M 294.880395 113.491281 
L 294.880395 102.405009 
" style="fill:none;stroke:#ff0000;stroke-linecap:square;stroke-width:0.5;"/>
   </g>
   <g id="line2d_19">
    <path clip-path="url(#p8e2f92b3a0)" d="M 297.617746 102.405009 
L 292.143044 102.405009 
" style="fill:none;stroke:#ff0000;stroke-linecap:square;stroke-width:0.5;"/>
   </g>
   <g id="line2d_20">
    <path clip-path="url(#p8e2f92b3a0)" d="M 297.617746 124.577591 
L 292.143044 124.577591 
" style="fill:none;stroke:#ff0000;stroke-linecap:square;stroke-width:0.5;"/>
   </g>
   <g id="line2d_21">
    <path clip-path="url(#p8e2f92b3a0)" d="M 292.143044 124.577554 
L 297.617746 124.577554 
" style="fill:none;stroke:#ff0000;stroke-linecap:square;stroke-width:0.5;"/>
   </g>
   <g id="line2d_22">
    <path clip-path="url(#p8e2f92b3a0)" d="M 294.880395 127.314905 
L 294.880395 121.840202 
" style="fill:none;stroke:#ff0000;stroke-linecap:square;stroke-width:0.5;"/>
   </g>
   <g id="line2d_23">
    <path clip-path="url(#p8e2f92b3a0)" d="M 239.61706 160.093142 
L 296.473901 35.594029 
" style="fill:none;stroke:#333333;stroke-linecap:square;stroke-width:0.5;"/>
   </g>
   <g id="line2d_24">
    <path clip-path="url(#p8e2f92b3a0)" d="M 250.105727 137.126037 
L 250.105668 137.126037 
" style="fill:none;stroke:#ff0000;stroke-linecap:square;stroke-width:0.5;"/>
   </g>
   <g id="line2d_25">
    <path clip-path="url(#p8e2f92b3a0)" d="M 250.105845 137.126037 
L 250.105903 137.126037 
" style="fill:none;stroke:#ff0000;stroke-linecap:square;stroke-width:0.5;"/>
   </g>
   <g id="line2d_26">
    <path clip-path="url(#p8e2f92b3a0)" d="M 250.105903 134.388686 
L 250.105903 139.863389 
" style="fill:none;stroke:#ff0000;stroke-linecap:square;stroke-width:0.5;"/>
   </g>
   <g id="line2d_27">
    <path clip-path="url(#p8e2f92b3a0)" d="M 250.105668 134.388686 
L 250.105668 139.863389 
" style="fill:none;stroke:#ff0000;stroke-linecap:square;stroke-width:0.5;"/>
   </g>
   <g id="line2d_28">
    <path clip-path="url(#p8e2f92b3a0)" d="M 250.105786 137.126066 
L 250.105786 137.126095 
" style="fill:none;stroke:#ff0000;stroke-linecap:square;stroke-width:0.5;"/>
   </g>
   <g id="line2d_29">
    <path clip-path="url(#p8e2f92b3a0)" d="M 250.105786 137.126009 
L 250.105786 137.12598 
" style="fill:none;stroke:#ff0000;stroke-linecap:square;stroke-width:0.5;"/>
   </g>
   <g id="line2d_30">
    <path clip-path="url(#p8e2f92b3a0)" d="M 252.843137 137.12598 
L 247.368435 137.12598 
" style="fill:none;stroke:#ff0000;stroke-linecap:square;stroke-width:0.5;"/>
   </g>
   <g id="line2d_31">
    <path clip-path="url(#p8e2f92b3a0)" d="M 252.843137 137.126095 
L 247.368435 137.126095 
" style="fill:none;stroke:#ff0000;stroke-linecap:square;stroke-width:0.5;"/>
   </g>
   <g id="line2d_32">
    <path clip-path="url(#p8e2f92b3a0)" d="M 247.368435 137.126037 
L 252.843137 137.126037 
" style="fill:none;stroke:#ff0000;stroke-linecap:square;stroke-width:0.5;"/>
   </g>
   <g id="line2d_33">
    <path clip-path="url(#p8e2f92b3a0)" d="M 250.105786 139.863389 
L 250.105786 134.388686 
" style="fill:none;stroke:#ff0000;stroke-linecap:square;stroke-width:0.5;"/>
   </g>
   <g id="line2d_34">
    <path clip-path="url(#p8e2f92b3a0)" d="M 239.61706 160.093142 
L 220.138776 24.618695 
" style="fill:none;stroke:#cccccc;stroke-linecap:square;stroke-width:0.5;"/>
   </g>
   <g id="line2d_35">
    <path clip-path="url(#p8e2f92b3a0)" d="M 239.61706 160.093142 
L 149.987868 56.655541 
" style="fill:none;stroke:#333333;stroke-linecap:square;stroke-width:0.5;"/>
   </g>
   <g id="line2d_36">
    <path clip-path="url(#p8e2f92b3a0)" d="M 212.293807 128.560458 
L 212.293781 128.560458 
" style="fill:none;stroke:#0000ff;stroke-linecap:square;stroke-width:0.5;"/>
   </g>
   <g id="line2d_37">
    <path clip-path="url(#p8e2f92b3a0)" d="M 212.293861 128.560458 
L 212.293888 128.560458 
" style="fill:none;stroke:#0000ff;stroke-linecap:square;stroke-width:0.5;"/>
   </g>
   <g id="line2d_38">
    <path clip-path="url(#p8e2f92b3a0)" d="M 212.293888 125.823107 
L 212.293888 131.29781 
" style="fill:none;stroke:#0000ff;stroke-linecap:square;stroke-width:0.5;"/>
   </g>
   <g id="line2d_39">
    <path clip-path="url(#p8e2f92b3a0)" d="M 212.293781 125.823107 
L 212.293781 131.29781 
" style="fill:none;stroke:#0000ff;stroke-linecap:square;stroke-width:0.5;"/>
   </g>
   <g id="line2d_40">
    <path clip-path="url(#p8e2f92b3a0)" d="M 212.293834 128.560478 
L 212.293834 128.560497 
" style="fill:none;stroke:#0000ff;stroke-linecap:square;stroke-width:0.5;"/>
   </g>
   <g id="line2d_41">
    <path clip-path="url(#p8e2f92b3a0)" d="M 212.293834 128.560439 
L 212.293834 128.56042 
" style="fill:none;stroke:#0000ff;stroke-linecap:square;stroke-width:0.5;"/>
   </g>
   <g id="line2d_42">
    <path clip-path="url(#p8e2f92b3a0)" d="M 215.031186 128.56042 
L 209.556483 128.56042 
" style="fill:none;stroke:#0000ff;stroke-linecap:square;stroke-width:0.5;"/>
   </g>
   <g id="line2d_43">
    <path clip-path="url(#p8e2f92b3a0)" d="M 215.031186 128.560497 
L 209.556483 128.560497 
" style="fill:none;stroke:#0000ff;stroke-linecap:square;stroke-width:0.5;"/>
   </g>
   <g id="line2d_44">
    <path clip-path="url(#p8e2f92b3a0)" d="M 209.556483 128.560458 
L 215.031186 128.560458 
" style="fill:none;stroke:#0000ff;stroke-linecap:square;stroke-width:0.5;"/>
   </g>
   <g id="line2d_45">
    <path clip-path="url(#p8e2f92b3a0)" d="M 212.293834 131.29781 
L 212.293834 125.823107 
" style="fill:none;stroke:#0000ff;stroke-linecap:square;stroke-width:0.5;"/>
   </g>
   <g id="line2d_46">
    <path clip-path="url(#p8e2f92b3a0)" d="M 239.61706 160.093142 
L 108.293596 121.533094 
" style="fill:none;stroke:#333333;stroke-linecap:square;stroke-width:0.5;"/>
   </g>
   <g id="line2d_47">
    <path clip-path="url(#p8e2f92b3a0)" d="M 215.861451 153.117874 
L 215.861423 153.117874 
" style="fill:none;stroke:#ff0000;stroke-linecap:square;stroke-width:0.5;"/>
   </g>
   <g id="line2d_48">
    <path clip-path="url(#p8e2f92b3a0)" d="M 215.861508 153.117874 
L 215.861536 153.117874 
" style="fill:none;stroke:#ff0000;stroke-linecap:square;stroke-width:0.5;"/>
   </g>
   <g id="line2d_49">
    <path clip-path="url(#p8e2f92b3a0)" d="M 215.861536 150.380523 
L 215.861536 155.855226 
" style="fill:none;stroke:#ff0000;stroke-linecap:square;stroke-width:0.5;"/>
   </g>
   <g id="line2d_50">
    <path clip-path="url(#p8e2f92b3a0)" d="M 215.861423 150.380523 
L 215.861423 155.855226 
" style="fill:none;stroke:#ff0000;stroke-linecap:square;stroke-width:0.5;"/>
   </g>
   <g id="line2d_51">
    <path clip-path="url(#p8e2f92b3a0)" d="M 215.86148 153.117892 
L 215.86148 153.11791 
" style="fill:none;stroke:#ff0000;stroke-linecap:square;stroke-width:0.5;"/>
   </g>
   <g id="line2d_52">
    <path clip-path="url(#p8e2f92b3a0)" d="M 215.86148 153.117857 
L 215.86148 153.117839 
" style="fill:none;stroke:#ff0000;stroke-linecap:square;stroke-width:0.5;"/>
   </g>
   <g id="line2d_53">
    <path clip-path="url(#p8e2f92b3a0)" d="M 218.598831 153.117839 
L 213.124128 153.117839 
" style="fill:none;stroke:#ff0000;stroke-linecap:square;stroke-width:0.5;"/>
   </g>
   <g id="line2d_54">
    <path clip-path="url(#p8e2f92b3a0)" d="M 218.598831 153.11791 
L 213.124128 153.11791 
" style="fill:none;stroke:#ff0000;stroke-linecap:square;stroke-width:0.5;"/>
   </g>
   <g id="line2d_55">
    <path clip-path="url(#p8e2f92b3a0)" d="M 213.124128 153.117874 
L 218.598831 153.117874 
" style="fill:none;stroke:#ff0000;stroke-linecap:square;stroke-width:0.5;"/>
   </g>
   <g id="line2d_56">
    <path clip-path="url(#p8e2f92b3a0)" d="M 215.86148 155.855226 
L 215.86148 150.380523 
" style="fill:none;stroke:#ff0000;stroke-linecap:square;stroke-width:0.5;"/>
   </g>
   <g id="line2d_57">
    <path clip-path="url(#p8e2f92b3a0)" d="M 239.61706 160.093142 
L 108.293596 198.653191 
" style="fill:none;stroke:#cccccc;stroke-linecap:square;stroke-width:0.5;"/>
   </g>
   <g id="line2d_58">
    <path clip-path="url(#p8e2f92b3a0)" d="M 239.61706 160.093142 
L 149.987868 263.530744 
" style="fill:none;stroke:#cccccc;stroke-linecap:square;stroke-width:0.5;"/>
   </g>
   <g id="line2d_59">
    <path clip-path="url(#p8e2f92b3a0)" d="M 239.61706 160.093142 
L 220.138776 295.56759 
" style="fill:none;stroke:#333333;stroke-linecap:square;stroke-width:0.5;"/>
   </g>
   <g id="line2d_60">
    <path clip-path="url(#p8e2f92b3a0)" d="M 224.177797 267.475103 
L 224.177729 267.475103 
" style="fill:none;stroke:#ff0000;stroke-linecap:square;stroke-width:0.5;"/>
   </g>
   <g id="line2d_61">
    <path clip-path="url(#p8e2f92b3a0)" d="M 224.177934 267.475103 
L 224.178002 267.475103 
" style="fill:none;stroke:#ff0000;stroke-linecap:square;stroke-width:0.5;"/>
   </g>
   <g id="line2d_62">
    <path clip-path="url(#p8e2f92b3a0)" d="M 224.178002 264.737751 
L 224.178002 270.212454 
" style="fill:none;stroke:#ff0000;stroke-linecap:square;stroke-width:0.5;"/>
   </g>
   <g id="line2d_63">
    <path clip-path="url(#p8e2f92b3a0)" d="M 224.177729 264.737751 
L 224.177729 270.212454 
" style="fill:none;stroke:#ff0000;stroke-linecap:square;stroke-width:0.5;"/>
   </g>
   <g id="line2d_64">
    <path clip-path="url(#p8e2f92b3a0)" d="M 224.177865 267.475138 
L 224.177865 267.475172 
" style="fill:none;stroke:#ff0000;stroke-linecap:square;stroke-width:0.5;"/>
   </g>
   <g id="line2d_65">
    <path clip-path="url(#p8e2f92b3a0)" d="M 224.177865 267.475068 
L 224.177865 267.475033 
" style="fill:none;stroke:#ff0000;stroke-linecap:square;stroke-width:0.5;"/>
   </g>
   <g id="line2d_66">
    <path clip-path="url(#p8e2f92b3a0)" d="M 226.915217 267.475033 
L 221.440514 267.475033 
" style="fill:none;stroke:#ff0000;stroke-linecap:square;stroke-width:0.5;"/>
   </g>
   <g id="line2d_67">
    <path clip-path="url(#p8e2f92b3a0)" d="M 226.915217 267.475172 
L 221.440514 267.475172 
" style="fill:none;stroke:#ff0000;stroke-linecap:square;stroke-width:0.5;"/>
   </g>
   <g id="line2d_68">
    <path clip-path="url(#p8e2f92b3a0)" d="M 221.440514 267.475103 
L 226.915217 267.475103 
" style="fill:none;stroke:#ff0000;stroke-linecap:square;stroke-width:0.5;"/>
   </g>
   <g id="line2d_69">
    <path clip-path="url(#p8e2f92b3a0)" d="M 224.177865 270.212454 
L 224.177865 264.737751 
" style="fill:none;stroke:#ff0000;stroke-linecap:square;stroke-width:0.5;"/>
   </g>
   <g id="line2d_70">
    <path clip-path="url(#p8e2f92b3a0)" d="M 239.61706 160.093142 
L 296.473901 284.592256 
" style="fill:none;stroke:#333333;stroke-linecap:square;stroke-width:0.5;"/>
   </g>
   <g id="line2d_71">
    <path clip-path="url(#p8e2f92b3a0)" d="M 296.473832 284.592256 
L 296.473764 284.592256 
" style="fill:none;stroke:#0000ff;stroke-linecap:square;stroke-width:0.5;"/>
   </g>
   <g id="line2d_72">
    <path clip-path="url(#p8e2f92b3a0)" d="M 296.473969 284.592256 
L 296.474037 284.592256 
" style="fill:none;stroke:#0000ff;stroke-linecap:square;stroke-width:0.5;"/>
   </g>
   <g id="line2d_73">
    <path clip-path="url(#p8e2f92b3a0)" d="M 296.474037 281.854905 
L 296.474037 287.329607 
" style="fill:none;stroke:#0000ff;stroke-linecap:square;stroke-width:0.5;"/>
   </g>
   <g id="line2d_74">
    <path clip-path="url(#p8e2f92b3a0)" d="M 296.473764 281.854905 
L 296.473764 287.329607 
" style="fill:none;stroke:#0000ff;stroke-linecap:square;stroke-width:0.5;"/>
   </g>
   <g id="line2d_75">
    <path clip-path="url(#p8e2f92b3a0)" d="M 296.473901 284.592286 
L 296.473901 284.592316 
" style="fill:none;stroke:#0000ff;stroke-linecap:square;stroke-width:0.5;"/>
   </g>
   <g id="line2d_76">
    <path clip-path="url(#p8e2f92b3a0)" d="M 296.473901 284.592226 
L 296.473901 284.592196 
" style="fill:none;stroke:#0000ff;stroke-linecap:square;stroke-width:0.5;"/>
   </g>
   <g id="line2d_77">
    <path clip-path="url(#p8e2f92b3a0)" d="M 299.211252 284.592196 
L 293.736549 284.592196 
" style="fill:none;stroke:#0000ff;stroke-linecap:square;stroke-width:0.5;"/>
   </g>
   <g id="line2d_78">
    <path clip-path="url(#p8e2f92b3a0)" d="M 299.211252 284.592316 
L 293.736549 284.592316 
" style="fill:none;stroke:#0000ff;stroke-linecap:square;stroke-width:0.5;"/>
   </g>
   <g id="line2d_79">
    <path clip-path="url(#p8e2f92b3a0)" d="M 293.736549 284.592256 
L 299.211252 284.592256 
" style="fill:none;stroke:#0000ff;stroke-linecap:square;stroke-width:0.5;"/>
   </g>
   <g id="line2d_80">
    <path clip-path="url(#p8e2f92b3a0)" d="M 296.473901 287.329607 
L 296.473901 281.854905 
" style="fill:none;stroke:#0000ff;stroke-linecap:square;stroke-width:0.5;"/>
   </g>
   <g id="line2d_81">
    <path clip-path="url(#p8e2f92b3a0)" d="M 239.61706 160.093142 
L 354.757381 234.089333 
" style="fill:none;stroke:#cccccc;stroke-linecap:square;stroke-width:0.5;"/>
   </g>
   <g id="text_1">
    <!-- 100(%) -->
    <defs>
     <path d="M 12.40625 8.296875 
L 28.515625 8.296875 
L 28.515625 63.921875 
L 10.984375 60.40625 
L 10.984375 69.390625 
L 28.421875 72.90625 
L 38.28125 72.90625 
L 38.28125 8.296875 
L 54.390625 8.296875 
L 54.390625 0 
L 12.40625 0 
z
" id="DejaVuSans-49"/>
     <path d="M 31.78125 66.40625 
Q 24.171875 66.40625 20.328125 58.90625 
Q 16.5 51.421875 16.5 36.375 
Q 16.5 21.390625 20.328125 13.890625 
Q 24.171875 6.390625 31.78125 6.390625 
Q 39.453125 6.390625 43.28125 13.890625 
Q 47.125 21.390625 47.125 36.375 
Q 47.125 51.421875 43.28125 58.90625 
Q 39.453125 66.40625 31.78125 66.40625 
z
M 31.78125 74.21875 
Q 44.046875 74.21875 50.515625 64.515625 
Q 56.984375 54.828125 56.984375 36.375 
Q 56.984375 17.96875 50.515625 8.265625 
Q 44.046875 -1.421875 31.78125 -1.421875 
Q 19.53125 -1.421875 13.0625 8.265625 
Q 6.59375 17.96875 6.59375 36.375 
Q 6.59375 54.828125 13.0625 64.515625 
Q 19.53125 74.21875 31.78125 74.21875 
z
" id="DejaVuSans-48"/>
     <path d="M 31 75.875 
Q 24.46875 64.65625 21.28125 53.65625 
Q 18.109375 42.671875 18.109375 31.390625 
Q 18.109375 20.125 21.3125 9.0625 
Q 24.515625 -2 31 -13.1875 
L 23.1875 -13.1875 
Q 15.875 -1.703125 12.234375 9.375 
Q 8.59375 20.453125 8.59375 31.390625 
Q 8.59375 42.28125 12.203125 53.3125 
Q 15.828125 64.359375 23.1875 75.875 
z
" id="DejaVuSans-40"/>
     <path d="M 72.703125 32.078125 
Q 68.453125 32.078125 66.03125 28.46875 
Q 63.625 24.859375 63.625 18.40625 
Q 63.625 12.0625 66.03125 8.421875 
Q 68.453125 4.78125 72.703125 4.78125 
Q 76.859375 4.78125 79.265625 8.421875 
Q 81.6875 12.0625 81.6875 18.40625 
Q 81.6875 24.8125 79.265625 28.4375 
Q 76.859375 32.078125 72.703125 32.078125 
z
M 72.703125 38.28125 
Q 80.421875 38.28125 84.953125 32.90625 
Q 89.5 27.546875 89.5 18.40625 
Q 89.5 9.28125 84.9375 3.921875 
Q 80.375 -1.421875 72.703125 -1.421875 
Q 64.890625 -1.421875 60.34375 3.921875 
Q 55.8125 9.28125 55.8125 18.40625 
Q 55.8125 27.59375 60.375 32.9375 
Q 64.9375 38.28125 72.703125 38.28125 
z
M 22.3125 68.015625 
Q 18.109375 68.015625 15.6875 64.375 
Q 13.28125 60.75 13.28125 54.390625 
Q 13.28125 47.953125 15.671875 44.328125 
Q 18.0625 40.71875 22.3125 40.71875 
Q 26.5625 40.71875 28.96875 44.328125 
Q 31.390625 47.953125 31.390625 54.390625 
Q 31.390625 60.6875 28.953125 64.34375 
Q 26.515625 68.015625 22.3125 68.015625 
z
M 66.40625 74.21875 
L 74.21875 74.21875 
L 28.609375 -1.421875 
L 20.796875 -1.421875 
z
M 22.3125 74.21875 
Q 30.03125 74.21875 34.609375 68.875 
Q 39.203125 63.53125 39.203125 54.390625 
Q 39.203125 45.171875 34.640625 39.84375 
Q 30.078125 34.515625 22.3125 34.515625 
Q 14.546875 34.515625 10.03125 39.859375 
Q 5.515625 45.21875 5.515625 54.390625 
Q 5.515625 63.484375 10.046875 68.84375 
Q 14.59375 74.21875 22.3125 74.21875 
z
" id="DejaVuSans-37"/>
     <path d="M 8.015625 75.875 
L 15.828125 75.875 
Q 23.140625 64.359375 26.78125 53.3125 
Q 30.421875 42.28125 30.421875 31.390625 
Q 30.421875 20.453125 26.78125 9.375 
Q 23.140625 -1.703125 15.828125 -13.1875 
L 8.015625 -13.1875 
Q 14.5 -2 17.703125 9.0625 
Q 20.90625 20.125 20.90625 31.390625 
Q 20.90625 42.671875 17.703125 53.65625 
Q 14.5 64.65625 8.015625 75.875 
z
" id="DejaVuSans-41"/>
    </defs>
    <g style="fill:#333333;" transform="translate(239.61706 25.43308)scale(0.08 -0.08)">
     <use xlink:href="#DejaVuSans-49"/>
     <use x="63.623047" xlink:href="#DejaVuSans-48"/>
     <use x="127.246094" xlink:href="#DejaVuSans-48"/>
     <use x="190.869141" xlink:href="#DejaVuSans-40"/>
     <use x="229.882812" xlink:href="#DejaVuSans-37"/>
     <use x="324.902344" xlink:href="#DejaVuSans-41"/>
    </g>
   </g>
   <g id="text_2">
    <!-- 30 -->
    <defs>
     <path d="M 40.578125 39.3125 
Q 47.65625 37.796875 51.625 33 
Q 55.609375 28.21875 55.609375 21.1875 
Q 55.609375 10.40625 48.1875 4.484375 
Q 40.765625 -1.421875 27.09375 -1.421875 
Q 22.515625 -1.421875 17.65625 -0.515625 
Q 12.796875 0.390625 7.625 2.203125 
L 7.625 11.71875 
Q 11.71875 9.328125 16.59375 8.109375 
Q 21.484375 6.890625 26.8125 6.890625 
Q 36.078125 6.890625 40.9375 10.546875 
Q 45.796875 14.203125 45.796875 21.1875 
Q 45.796875 27.640625 41.28125 31.265625 
Q 36.765625 34.90625 28.71875 34.90625 
L 20.21875 34.90625 
L 20.21875 43.015625 
L 29.109375 43.015625 
Q 36.375 43.015625 40.234375 45.921875 
Q 44.09375 48.828125 44.09375 54.296875 
Q 44.09375 59.90625 40.109375 62.90625 
Q 36.140625 65.921875 28.71875 65.921875 
Q 24.65625 65.921875 20.015625 65.03125 
Q 15.375 64.15625 9.8125 62.3125 
L 9.8125 71.09375 
Q 15.4375 72.65625 20.34375 73.4375 
Q 25.25 74.21875 29.59375 74.21875 
Q 40.828125 74.21875 47.359375 69.109375 
Q 53.90625 64.015625 53.90625 55.328125 
Q 53.90625 49.265625 50.4375 45.09375 
Q 46.96875 40.921875 40.578125 39.3125 
z
" id="DejaVuSans-51"/>
    </defs>
    <g style="fill:#333333;" transform="translate(239.61706 121.240374)scale(0.08 -0.08)">
     <use xlink:href="#DejaVuSans-51"/>
     <use x="63.623047" xlink:href="#DejaVuSans-48"/>
    </g>
   </g>
   <g id="text_3">
    <!-- 10 -->
    <g style="fill:#333333;" transform="translate(239.61706 148.613886)scale(0.08 -0.08)">
     <use xlink:href="#DejaVuSans-49"/>
     <use x="63.623047" xlink:href="#DejaVuSans-48"/>
    </g>
   </g>
   <g id="text_4">
    <!-- Gaze -->
    <defs>
     <path d="M 59.515625 10.40625 
L 59.515625 29.984375 
L 43.40625 29.984375 
L 43.40625 38.09375 
L 69.28125 38.09375 
L 69.28125 6.78125 
Q 63.578125 2.734375 56.6875 0.65625 
Q 49.8125 -1.421875 42 -1.421875 
Q 24.90625 -1.421875 15.25 8.5625 
Q 5.609375 18.5625 5.609375 36.375 
Q 5.609375 54.25 15.25 64.234375 
Q 24.90625 74.21875 42 74.21875 
Q 49.125 74.21875 55.546875 72.453125 
Q 61.96875 70.703125 67.390625 67.28125 
L 67.390625 56.78125 
Q 61.921875 61.421875 55.765625 63.765625 
Q 49.609375 66.109375 42.828125 66.109375 
Q 29.4375 66.109375 22.71875 58.640625 
Q 16.015625 51.171875 16.015625 36.375 
Q 16.015625 21.625 22.71875 14.15625 
Q 29.4375 6.6875 42.828125 6.6875 
Q 48.046875 6.6875 52.140625 7.59375 
Q 56.25 8.5 59.515625 10.40625 
z
" id="DejaVuSans-71"/>
     <path d="M 34.28125 27.484375 
Q 23.390625 27.484375 19.1875 25 
Q 14.984375 22.515625 14.984375 16.5 
Q 14.984375 11.71875 18.140625 8.90625 
Q 21.296875 6.109375 26.703125 6.109375 
Q 34.1875 6.109375 38.703125 11.40625 
Q 43.21875 16.703125 43.21875 25.484375 
L 43.21875 27.484375 
z
M 52.203125 31.203125 
L 52.203125 0 
L 43.21875 0 
L 43.21875 8.296875 
Q 40.140625 3.328125 35.546875 0.953125 
Q 30.953125 -1.421875 24.3125 -1.421875 
Q 15.921875 -1.421875 10.953125 3.296875 
Q 6 8.015625 6 15.921875 
Q 6 25.140625 12.171875 29.828125 
Q 18.359375 34.515625 30.609375 34.515625 
L 43.21875 34.515625 
L 43.21875 35.40625 
Q 43.21875 41.609375 39.140625 45 
Q 35.0625 48.390625 27.6875 48.390625 
Q 23 48.390625 18.546875 47.265625 
Q 14.109375 46.140625 10.015625 43.890625 
L 10.015625 52.203125 
Q 14.9375 54.109375 19.578125 55.046875 
Q 24.21875 56 28.609375 56 
Q 40.484375 56 46.34375 49.84375 
Q 52.203125 43.703125 52.203125 31.203125 
z
" id="DejaVuSans-97"/>
     <path d="M 5.515625 54.6875 
L 48.1875 54.6875 
L 48.1875 46.484375 
L 14.40625 7.171875 
L 48.1875 7.171875 
L 48.1875 0 
L 4.296875 0 
L 4.296875 8.203125 
L 38.09375 47.515625 
L 5.515625 47.515625 
z
" id="DejaVuSans-122"/>
     <path d="M 56.203125 29.59375 
L 56.203125 25.203125 
L 14.890625 25.203125 
Q 15.484375 15.921875 20.484375 11.0625 
Q 25.484375 6.203125 34.421875 6.203125 
Q 39.59375 6.203125 44.453125 7.46875 
Q 49.3125 8.734375 54.109375 11.28125 
L 54.109375 2.78125 
Q 49.265625 0.734375 44.1875 -0.34375 
Q 39.109375 -1.421875 33.890625 -1.421875 
Q 20.796875 -1.421875 13.15625 6.1875 
Q 5.515625 13.8125 5.515625 26.8125 
Q 5.515625 40.234375 12.765625 48.109375 
Q 20.015625 56 32.328125 56 
Q 43.359375 56 49.78125 48.890625 
Q 56.203125 41.796875 56.203125 29.59375 
z
M 47.21875 32.234375 
Q 47.125 39.59375 43.09375 43.984375 
Q 39.0625 48.390625 32.421875 48.390625 
Q 24.90625 48.390625 20.390625 44.140625 
Q 15.875 39.890625 15.1875 32.171875 
z
" id="DejaVuSans-101"/>
    </defs>
    <g style="fill:#333333;" transform="translate(390.171379 162.300642)scale(0.08 -0.08)">
     <use xlink:href="#DejaVuSans-71"/>
     <use x="77.490234" xlink:href="#DejaVuSans-97"/>
     <use x="138.769531" xlink:href="#DejaVuSans-122"/>
     <use x="191.259766" xlink:href="#DejaVuSans-101"/>
    </g>
   </g>
   <g id="text_5">
    <!-- Fixation suppression -->
    <defs>
     <path d="M 9.8125 72.90625 
L 51.703125 72.90625 
L 51.703125 64.59375 
L 19.671875 64.59375 
L 19.671875 43.109375 
L 48.578125 43.109375 
L 48.578125 34.8125 
L 19.671875 34.8125 
L 19.671875 0 
L 9.8125 0 
z
" id="DejaVuSans-70"/>
     <path d="M 9.421875 54.6875 
L 18.40625 54.6875 
L 18.40625 0 
L 9.421875 0 
z
M 9.421875 75.984375 
L 18.40625 75.984375 
L 18.40625 64.59375 
L 9.421875 64.59375 
z
" id="DejaVuSans-105"/>
     <path d="M 54.890625 54.6875 
L 35.109375 28.078125 
L 55.90625 0 
L 45.3125 0 
L 29.390625 21.484375 
L 13.484375 0 
L 2.875 0 
L 24.125 28.609375 
L 4.6875 54.6875 
L 15.28125 54.6875 
L 29.78125 35.203125 
L 44.28125 54.6875 
z
" id="DejaVuSans-120"/>
     <path d="M 18.3125 70.21875 
L 18.3125 54.6875 
L 36.8125 54.6875 
L 36.8125 47.703125 
L 18.3125 47.703125 
L 18.3125 18.015625 
Q 18.3125 11.328125 20.140625 9.421875 
Q 21.96875 7.515625 27.59375 7.515625 
L 36.8125 7.515625 
L 36.8125 0 
L 27.59375 0 
Q 17.1875 0 13.234375 3.875 
Q 9.28125 7.765625 9.28125 18.015625 
L 9.28125 47.703125 
L 2.6875 47.703125 
L 2.6875 54.6875 
L 9.28125 54.6875 
L 9.28125 70.21875 
z
" id="DejaVuSans-116"/>
     <path d="M 30.609375 48.390625 
Q 23.390625 48.390625 19.1875 42.75 
Q 14.984375 37.109375 14.984375 27.296875 
Q 14.984375 17.484375 19.15625 11.84375 
Q 23.34375 6.203125 30.609375 6.203125 
Q 37.796875 6.203125 41.984375 11.859375 
Q 46.1875 17.53125 46.1875 27.296875 
Q 46.1875 37.015625 41.984375 42.703125 
Q 37.796875 48.390625 30.609375 48.390625 
z
M 30.609375 56 
Q 42.328125 56 49.015625 48.375 
Q 55.71875 40.765625 55.71875 27.296875 
Q 55.71875 13.875 49.015625 6.21875 
Q 42.328125 -1.421875 30.609375 -1.421875 
Q 18.84375 -1.421875 12.171875 6.21875 
Q 5.515625 13.875 5.515625 27.296875 
Q 5.515625 40.765625 12.171875 48.375 
Q 18.84375 56 30.609375 56 
z
" id="DejaVuSans-111"/>
     <path d="M 54.890625 33.015625 
L 54.890625 0 
L 45.90625 0 
L 45.90625 32.71875 
Q 45.90625 40.484375 42.875 44.328125 
Q 39.84375 48.1875 33.796875 48.1875 
Q 26.515625 48.1875 22.3125 43.546875 
Q 18.109375 38.921875 18.109375 30.90625 
L 18.109375 0 
L 9.078125 0 
L 9.078125 54.6875 
L 18.109375 54.6875 
L 18.109375 46.1875 
Q 21.34375 51.125 25.703125 53.5625 
Q 30.078125 56 35.796875 56 
Q 45.21875 56 50.046875 50.171875 
Q 54.890625 44.34375 54.890625 33.015625 
z
" id="DejaVuSans-110"/>
     <path id="DejaVuSans-32"/>
     <path d="M 44.28125 53.078125 
L 44.28125 44.578125 
Q 40.484375 46.53125 36.375 47.5 
Q 32.28125 48.484375 27.875 48.484375 
Q 21.1875 48.484375 17.84375 46.4375 
Q 14.5 44.390625 14.5 40.28125 
Q 14.5 37.15625 16.890625 35.375 
Q 19.28125 33.59375 26.515625 31.984375 
L 29.59375 31.296875 
Q 39.15625 29.25 43.1875 25.515625 
Q 47.21875 21.78125 47.21875 15.09375 
Q 47.21875 7.46875 41.1875 3.015625 
Q 35.15625 -1.421875 24.609375 -1.421875 
Q 20.21875 -1.421875 15.453125 -0.5625 
Q 10.6875 0.296875 5.421875 2 
L 5.421875 11.28125 
Q 10.40625 8.6875 15.234375 7.390625 
Q 20.0625 6.109375 24.8125 6.109375 
Q 31.15625 6.109375 34.5625 8.28125 
Q 37.984375 10.453125 37.984375 14.40625 
Q 37.984375 18.0625 35.515625 20.015625 
Q 33.0625 21.96875 24.703125 23.78125 
L 21.578125 24.515625 
Q 13.234375 26.265625 9.515625 29.90625 
Q 5.8125 33.546875 5.8125 39.890625 
Q 5.8125 47.609375 11.28125 51.796875 
Q 16.75 56 26.8125 56 
Q 31.78125 56 36.171875 55.265625 
Q 40.578125 54.546875 44.28125 53.078125 
z
" id="DejaVuSans-115"/>
     <path d="M 8.5 21.578125 
L 8.5 54.6875 
L 17.484375 54.6875 
L 17.484375 21.921875 
Q 17.484375 14.15625 20.5 10.265625 
Q 23.53125 6.390625 29.59375 6.390625 
Q 36.859375 6.390625 41.078125 11.03125 
Q 45.3125 15.671875 45.3125 23.6875 
L 45.3125 54.6875 
L 54.296875 54.6875 
L 54.296875 0 
L 45.3125 0 
L 45.3125 8.40625 
Q 42.046875 3.421875 37.71875 1 
Q 33.40625 -1.421875 27.6875 -1.421875 
Q 18.265625 -1.421875 13.375 4.4375 
Q 8.5 10.296875 8.5 21.578125 
z
M 31.109375 56 
z
" id="DejaVuSans-117"/>
     <path d="M 18.109375 8.203125 
L 18.109375 -20.796875 
L 9.078125 -20.796875 
L 9.078125 54.6875 
L 18.109375 54.6875 
L 18.109375 46.390625 
Q 20.953125 51.265625 25.265625 53.625 
Q 29.59375 56 35.59375 56 
Q 45.5625 56 51.78125 48.09375 
Q 58.015625 40.1875 58.015625 27.296875 
Q 58.015625 14.40625 51.78125 6.484375 
Q 45.5625 -1.421875 35.59375 -1.421875 
Q 29.59375 -1.421875 25.265625 0.953125 
Q 20.953125 3.328125 18.109375 8.203125 
z
M 48.6875 27.296875 
Q 48.6875 37.203125 44.609375 42.84375 
Q 40.53125 48.484375 33.40625 48.484375 
Q 26.265625 48.484375 22.1875 42.84375 
Q 18.109375 37.203125 18.109375 27.296875 
Q 18.109375 17.390625 22.1875 11.75 
Q 26.265625 6.109375 33.40625 6.109375 
Q 40.53125 6.109375 44.609375 11.75 
Q 48.6875 17.390625 48.6875 27.296875 
z
" id="DejaVuSans-112"/>
     <path d="M 41.109375 46.296875 
Q 39.59375 47.171875 37.8125 47.578125 
Q 36.03125 48 33.890625 48 
Q 26.265625 48 22.1875 43.046875 
Q 18.109375 38.09375 18.109375 28.8125 
L 18.109375 0 
L 9.078125 0 
L 9.078125 54.6875 
L 18.109375 54.6875 
L 18.109375 46.1875 
Q 20.953125 51.171875 25.484375 53.578125 
Q 30.03125 56 36.53125 56 
Q 37.453125 56 38.578125 55.875 
Q 39.703125 55.765625 41.0625 55.515625 
z
" id="DejaVuSans-114"/>
    </defs>
    <g style="fill:#333333;" transform="translate(366.271413 80.904833)scale(0.08 -0.08)">
     <use xlink:href="#DejaVuSans-70"/>
     <use x="57.410156" xlink:href="#DejaVuSans-105"/>
     <use x="85.193359" xlink:href="#DejaVuSans-120"/>
     <use x="144.373047" xlink:href="#DejaVuSans-97"/>
     <use x="205.652344" xlink:href="#DejaVuSans-116"/>
     <use x="244.861328" xlink:href="#DejaVuSans-105"/>
     <use x="272.644531" xlink:href="#DejaVuSans-111"/>
     <use x="333.826172" xlink:href="#DejaVuSans-110"/>
     <use x="397.205078" xlink:href="#DejaVuSans-32"/>
     <use x="428.992188" xlink:href="#DejaVuSans-115"/>
     <use x="481.091797" xlink:href="#DejaVuSans-117"/>
     <use x="544.470703" xlink:href="#DejaVuSans-112"/>
     <use x="607.947266" xlink:href="#DejaVuSans-112"/>
     <use x="671.423828" xlink:href="#DejaVuSans-114"/>
     <use x="712.505859" xlink:href="#DejaVuSans-101"/>
     <use x="774.029297" xlink:href="#DejaVuSans-115"/>
     <use x="826.128906" xlink:href="#DejaVuSans-115"/>
     <use x="878.228516" xlink:href="#DejaVuSans-105"/>
     <use x="906.011719" xlink:href="#DejaVuSans-111"/>
     <use x="967.193359" xlink:href="#DejaVuSans-110"/>
    </g>
   </g>
   <g id="text_6">
    <!-- Horizontal pursuit 10s -->
    <defs>
     <path d="M 9.8125 72.90625 
L 19.671875 72.90625 
L 19.671875 43.015625 
L 55.515625 43.015625 
L 55.515625 72.90625 
L 65.375 72.90625 
L 65.375 0 
L 55.515625 0 
L 55.515625 34.71875 
L 19.671875 34.71875 
L 19.671875 0 
L 9.8125 0 
z
" id="DejaVuSans-72"/>
     <path d="M 9.421875 75.984375 
L 18.40625 75.984375 
L 18.40625 0 
L 9.421875 0 
z
" id="DejaVuSans-108"/>
    </defs>
    <g style="fill:#333333;" transform="translate(302.159585 25.351617)scale(0.08 -0.08)">
     <use xlink:href="#DejaVuSans-72"/>
     <use x="75.195312" xlink:href="#DejaVuSans-111"/>
     <use x="136.376953" xlink:href="#DejaVuSans-114"/>
     <use x="177.490234" xlink:href="#DejaVuSans-105"/>
     <use x="205.273438" xlink:href="#DejaVuSans-122"/>
     <use x="257.763672" xlink:href="#DejaVuSans-111"/>
     <use x="318.945312" xlink:href="#DejaVuSans-110"/>
     <use x="382.324219" xlink:href="#DejaVuSans-116"/>
     <use x="421.533203" xlink:href="#DejaVuSans-97"/>
     <use x="482.8125" xlink:href="#DejaVuSans-108"/>
     <use x="510.595703" xlink:href="#DejaVuSans-32"/>
     <use x="542.382812" xlink:href="#DejaVuSans-112"/>
     <use x="605.859375" xlink:href="#DejaVuSans-117"/>
     <use x="669.238281" xlink:href="#DejaVuSans-114"/>
     <use x="710.351562" xlink:href="#DejaVuSans-115"/>
     <use x="762.451172" xlink:href="#DejaVuSans-117"/>
     <use x="825.830078" xlink:href="#DejaVuSans-105"/>
     <use x="853.613281" xlink:href="#DejaVuSans-116"/>
     <use x="892.822266" xlink:href="#DejaVuSans-32"/>
     <use x="924.609375" xlink:href="#DejaVuSans-49"/>
     <use x="988.232422" xlink:href="#DejaVuSans-48"/>
     <use x="1051.855469" xlink:href="#DejaVuSans-115"/>
    </g>
   </g>
   <g id="text_7">
    <!-- Horizontal saccade 10s -->
    <defs>
     <path d="M 48.78125 52.59375 
L 48.78125 44.1875 
Q 44.96875 46.296875 41.140625 47.34375 
Q 37.3125 48.390625 33.40625 48.390625 
Q 24.65625 48.390625 19.8125 42.84375 
Q 14.984375 37.3125 14.984375 27.296875 
Q 14.984375 17.28125 19.8125 11.734375 
Q 24.65625 6.203125 33.40625 6.203125 
Q 37.3125 6.203125 41.140625 7.25 
Q 44.96875 8.296875 48.78125 10.40625 
L 48.78125 2.09375 
Q 45.015625 0.34375 40.984375 -0.53125 
Q 36.96875 -1.421875 32.421875 -1.421875 
Q 20.0625 -1.421875 12.78125 6.34375 
Q 5.515625 14.109375 5.515625 27.296875 
Q 5.515625 40.671875 12.859375 48.328125 
Q 20.21875 56 33.015625 56 
Q 37.15625 56 41.109375 55.140625 
Q 45.0625 54.296875 48.78125 52.59375 
z
" id="DejaVuSans-99"/>
     <path d="M 45.40625 46.390625 
L 45.40625 75.984375 
L 54.390625 75.984375 
L 54.390625 0 
L 45.40625 0 
L 45.40625 8.203125 
Q 42.578125 3.328125 38.25 0.953125 
Q 33.9375 -1.421875 27.875 -1.421875 
Q 17.96875 -1.421875 11.734375 6.484375 
Q 5.515625 14.40625 5.515625 27.296875 
Q 5.515625 40.1875 11.734375 48.09375 
Q 17.96875 56 27.875 56 
Q 33.9375 56 38.25 53.625 
Q 42.578125 51.265625 45.40625 46.390625 
z
M 14.796875 27.296875 
Q 14.796875 17.390625 18.875 11.75 
Q 22.953125 6.109375 30.078125 6.109375 
Q 37.203125 6.109375 41.296875 11.75 
Q 45.40625 17.390625 45.40625 27.296875 
Q 45.40625 37.203125 41.296875 42.84375 
Q 37.203125 48.484375 30.078125 48.484375 
Q 22.953125 48.484375 18.875 42.84375 
Q 14.796875 37.203125 14.796875 27.296875 
z
" id="DejaVuSans-100"/>
    </defs>
    <g style="fill:#cccccc;" transform="translate(125.139697 13.27875)scale(0.08 -0.08)">
     <use xlink:href="#DejaVuSans-72"/>
     <use x="75.195312" xlink:href="#DejaVuSans-111"/>
     <use x="136.376953" xlink:href="#DejaVuSans-114"/>
     <use x="177.490234" xlink:href="#DejaVuSans-105"/>
     <use x="205.273438" xlink:href="#DejaVuSans-122"/>
     <use x="257.763672" xlink:href="#DejaVuSans-111"/>
     <use x="318.945312" xlink:href="#DejaVuSans-110"/>
     <use x="382.324219" xlink:href="#DejaVuSans-116"/>
     <use x="421.533203" xlink:href="#DejaVuSans-97"/>
     <use x="482.8125" xlink:href="#DejaVuSans-108"/>
     <use x="510.595703" xlink:href="#DejaVuSans-32"/>
     <use x="542.382812" xlink:href="#DejaVuSans-115"/>
     <use x="594.482422" xlink:href="#DejaVuSans-97"/>
     <use x="655.761719" xlink:href="#DejaVuSans-99"/>
     <use x="710.742188" xlink:href="#DejaVuSans-99"/>
     <use x="765.722656" xlink:href="#DejaVuSans-97"/>
     <use x="827.001953" xlink:href="#DejaVuSans-100"/>
     <use x="890.478516" xlink:href="#DejaVuSans-101"/>
     <use x="952.001953" xlink:href="#DejaVuSans-32"/>
     <use x="983.789062" xlink:href="#DejaVuSans-49"/>
     <use x="1047.412109" xlink:href="#DejaVuSans-48"/>
     <use x="1111.035156" xlink:href="#DejaVuSans-115"/>
    </g>
   </g>
   <g id="text_8">
    <!-- Horizontal pursuit 5s -->
    <defs>
     <path d="M 10.796875 72.90625 
L 49.515625 72.90625 
L 49.515625 64.59375 
L 19.828125 64.59375 
L 19.828125 46.734375 
Q 21.96875 47.46875 24.109375 47.828125 
Q 26.265625 48.1875 28.421875 48.1875 
Q 40.625 48.1875 47.75 41.5 
Q 54.890625 34.8125 54.890625 23.390625 
Q 54.890625 11.625 47.5625 5.09375 
Q 40.234375 -1.421875 26.90625 -1.421875 
Q 22.3125 -1.421875 17.546875 -0.640625 
Q 12.796875 0.140625 7.71875 1.703125 
L 7.71875 11.625 
Q 12.109375 9.234375 16.796875 8.0625 
Q 21.484375 6.890625 26.703125 6.890625 
Q 35.15625 6.890625 40.078125 11.328125 
Q 45.015625 15.765625 45.015625 23.390625 
Q 45.015625 31 40.078125 35.4375 
Q 35.15625 39.890625 26.703125 39.890625 
Q 22.75 39.890625 18.8125 39.015625 
Q 14.890625 38.140625 10.796875 36.28125 
z
" id="DejaVuSans-53"/>
    </defs>
    <g style="fill:#333333;" transform="translate(57.801199 48.51928)scale(0.08 -0.08)">
     <use xlink:href="#DejaVuSans-72"/>
     <use x="75.195312" xlink:href="#DejaVuSans-111"/>
     <use x="136.376953" xlink:href="#DejaVuSans-114"/>
     <use x="177.490234" xlink:href="#DejaVuSans-105"/>
     <use x="205.273438" xlink:href="#DejaVuSans-122"/>
     <use x="257.763672" xlink:href="#DejaVuSans-111"/>
     <use x="318.945312" xlink:href="#DejaVuSans-110"/>
     <use x="382.324219" xlink:href="#DejaVuSans-116"/>
     <use x="421.533203" xlink:href="#DejaVuSans-97"/>
     <use x="482.8125" xlink:href="#DejaVuSans-108"/>
     <use x="510.595703" xlink:href="#DejaVuSans-32"/>
     <use x="542.382812" xlink:href="#DejaVuSans-112"/>
     <use x="605.859375" xlink:href="#DejaVuSans-117"/>
     <use x="669.238281" xlink:href="#DejaVuSans-114"/>
     <use x="710.351562" xlink:href="#DejaVuSans-115"/>
     <use x="762.451172" xlink:href="#DejaVuSans-117"/>
     <use x="825.830078" xlink:href="#DejaVuSans-105"/>
     <use x="853.613281" xlink:href="#DejaVuSans-116"/>
     <use x="892.822266" xlink:href="#DejaVuSans-32"/>
     <use x="924.609375" xlink:href="#DejaVuSans-53"/>
     <use x="988.232422" xlink:href="#DejaVuSans-115"/>
    </g>
   </g>
   <g id="text_9">
    <!-- Horizontal saccade 5s -->
    <g style="fill:#333333;" transform="translate(7.2 119.884589)scale(0.08 -0.08)">
     <use xlink:href="#DejaVuSans-72"/>
     <use x="75.195312" xlink:href="#DejaVuSans-111"/>
     <use x="136.376953" xlink:href="#DejaVuSans-114"/>
     <use x="177.490234" xlink:href="#DejaVuSans-105"/>
     <use x="205.273438" xlink:href="#DejaVuSans-122"/>
     <use x="257.763672" xlink:href="#DejaVuSans-111"/>
     <use x="318.945312" xlink:href="#DejaVuSans-110"/>
     <use x="382.324219" xlink:href="#DejaVuSans-116"/>
     <use x="421.533203" xlink:href="#DejaVuSans-97"/>
     <use x="482.8125" xlink:href="#DejaVuSans-108"/>
     <use x="510.595703" xlink:href="#DejaVuSans-32"/>
     <use x="542.382812" xlink:href="#DejaVuSans-115"/>
     <use x="594.482422" xlink:href="#DejaVuSans-97"/>
     <use x="655.761719" xlink:href="#DejaVuSans-99"/>
     <use x="710.742188" xlink:href="#DejaVuSans-99"/>
     <use x="765.722656" xlink:href="#DejaVuSans-97"/>
     <use x="827.001953" xlink:href="#DejaVuSans-100"/>
     <use x="890.478516" xlink:href="#DejaVuSans-101"/>
     <use x="952.001953" xlink:href="#DejaVuSans-32"/>
     <use x="983.789062" xlink:href="#DejaVuSans-53"/>
     <use x="1047.412109" xlink:href="#DejaVuSans-115"/>
    </g>
   </g>
   <g id="text_10">
    <!-- Horizontal pursuit 3s -->
    <g style="fill:#cccccc;" transform="translate(11.9375 204.716695)scale(0.08 -0.08)">
     <use xlink:href="#DejaVuSans-72"/>
     <use x="75.195312" xlink:href="#DejaVuSans-111"/>
     <use x="136.376953" xlink:href="#DejaVuSans-114"/>
     <use x="177.490234" xlink:href="#DejaVuSans-105"/>
     <use x="205.273438" xlink:href="#DejaVuSans-122"/>
     <use x="257.763672" xlink:href="#DejaVuSans-111"/>
     <use x="318.945312" xlink:href="#DejaVuSans-110"/>
     <use x="382.324219" xlink:href="#DejaVuSans-116"/>
     <use x="421.533203" xlink:href="#DejaVuSans-97"/>
     <use x="482.8125" xlink:href="#DejaVuSans-108"/>
     <use x="510.595703" xlink:href="#DejaVuSans-32"/>
     <use x="542.382812" xlink:href="#DejaVuSans-112"/>
     <use x="605.859375" xlink:href="#DejaVuSans-117"/>
     <use x="669.238281" xlink:href="#DejaVuSans-114"/>
     <use x="710.351562" xlink:href="#DejaVuSans-115"/>
     <use x="762.451172" xlink:href="#DejaVuSans-117"/>
     <use x="825.830078" xlink:href="#DejaVuSans-105"/>
     <use x="853.613281" xlink:href="#DejaVuSans-116"/>
     <use x="892.822266" xlink:href="#DejaVuSans-32"/>
     <use x="924.609375" xlink:href="#DejaVuSans-51"/>
     <use x="988.232422" xlink:href="#DejaVuSans-115"/>
    </g>
   </g>
   <g id="text_11">
    <!-- Horizontal saccade 3s -->
    <g style="fill:#cccccc;" transform="translate(53.063699 276.082004)scale(0.08 -0.08)">
     <use xlink:href="#DejaVuSans-72"/>
     <use x="75.195312" xlink:href="#DejaVuSans-111"/>
     <use x="136.376953" xlink:href="#DejaVuSans-114"/>
     <use x="177.490234" xlink:href="#DejaVuSans-105"/>
     <use x="205.273438" xlink:href="#DejaVuSans-122"/>
     <use x="257.763672" xlink:href="#DejaVuSans-111"/>
     <use x="318.945312" xlink:href="#DejaVuSans-110"/>
     <use x="382.324219" xlink:href="#DejaVuSans-116"/>
     <use x="421.533203" xlink:href="#DejaVuSans-97"/>
     <use x="482.8125" xlink:href="#DejaVuSans-108"/>
     <use x="510.595703" xlink:href="#DejaVuSans-32"/>
     <use x="542.382812" xlink:href="#DejaVuSans-115"/>
     <use x="594.482422" xlink:href="#DejaVuSans-97"/>
     <use x="655.761719" xlink:href="#DejaVuSans-99"/>
     <use x="710.742188" xlink:href="#DejaVuSans-99"/>
     <use x="765.722656" xlink:href="#DejaVuSans-97"/>
     <use x="827.001953" xlink:href="#DejaVuSans-100"/>
     <use x="890.478516" xlink:href="#DejaVuSans-101"/>
     <use x="952.001953" xlink:href="#DejaVuSans-32"/>
     <use x="983.789062" xlink:href="#DejaVuSans-51"/>
     <use x="1047.412109" xlink:href="#DejaVuSans-115"/>
    </g>
   </g>
   <g id="text_12">
    <!-- Horizontal OKN+ 5s -->
    <defs>
     <path d="M 39.40625 66.21875 
Q 28.65625 66.21875 22.328125 58.203125 
Q 16.015625 50.203125 16.015625 36.375 
Q 16.015625 22.609375 22.328125 14.59375 
Q 28.65625 6.59375 39.40625 6.59375 
Q 50.140625 6.59375 56.421875 14.59375 
Q 62.703125 22.609375 62.703125 36.375 
Q 62.703125 50.203125 56.421875 58.203125 
Q 50.140625 66.21875 39.40625 66.21875 
z
M 39.40625 74.21875 
Q 54.734375 74.21875 63.90625 63.9375 
Q 73.09375 53.65625 73.09375 36.375 
Q 73.09375 19.140625 63.90625 8.859375 
Q 54.734375 -1.421875 39.40625 -1.421875 
Q 24.03125 -1.421875 14.8125 8.828125 
Q 5.609375 19.09375 5.609375 36.375 
Q 5.609375 53.65625 14.8125 63.9375 
Q 24.03125 74.21875 39.40625 74.21875 
z
" id="DejaVuSans-79"/>
     <path d="M 9.8125 72.90625 
L 19.671875 72.90625 
L 19.671875 42.09375 
L 52.390625 72.90625 
L 65.09375 72.90625 
L 28.90625 38.921875 
L 67.671875 0 
L 54.6875 0 
L 19.671875 35.109375 
L 19.671875 0 
L 9.8125 0 
z
" id="DejaVuSans-75"/>
     <path d="M 9.8125 72.90625 
L 23.09375 72.90625 
L 55.421875 11.921875 
L 55.421875 72.90625 
L 64.984375 72.90625 
L 64.984375 0 
L 51.703125 0 
L 19.390625 60.984375 
L 19.390625 0 
L 9.8125 0 
z
" id="DejaVuSans-78"/>
     <path d="M 46 62.703125 
L 46 35.5 
L 73.1875 35.5 
L 73.1875 27.203125 
L 46 27.203125 
L 46 0 
L 37.796875 0 
L 37.796875 27.203125 
L 10.59375 27.203125 
L 10.59375 35.5 
L 37.796875 35.5 
L 37.796875 62.703125 
z
" id="DejaVuSans-43"/>
    </defs>
    <g style="fill:#333333;" transform="translate(138.768447 311.322535)scale(0.08 -0.08)">
     <use xlink:href="#DejaVuSans-72"/>
     <use x="75.195312" xlink:href="#DejaVuSans-111"/>
     <use x="136.376953" xlink:href="#DejaVuSans-114"/>
     <use x="177.490234" xlink:href="#DejaVuSans-105"/>
     <use x="205.273438" xlink:href="#DejaVuSans-122"/>
     <use x="257.763672" xlink:href="#DejaVuSans-111"/>
     <use x="318.945312" xlink:href="#DejaVuSans-110"/>
     <use x="382.324219" xlink:href="#DejaVuSans-116"/>
     <use x="421.533203" xlink:href="#DejaVuSans-97"/>
     <use x="482.8125" xlink:href="#DejaVuSans-108"/>
     <use x="510.595703" xlink:href="#DejaVuSans-32"/>
     <use x="542.382812" xlink:href="#DejaVuSans-79"/>
     <use x="621.09375" xlink:href="#DejaVuSans-75"/>
     <use x="686.669922" xlink:href="#DejaVuSans-78"/>
     <use x="761.474609" xlink:href="#DejaVuSans-43"/>
     <use x="845.263672" xlink:href="#DejaVuSans-32"/>
     <use x="877.050781" xlink:href="#DejaVuSans-53"/>
     <use x="940.673828" xlink:href="#DejaVuSans-115"/>
    </g>
   </g>
   <g id="text_13">
    <!-- Horizontal OKN- 5s -->
    <defs>
     <path d="M 4.890625 31.390625 
L 31.203125 31.390625 
L 31.203125 23.390625 
L 4.890625 23.390625 
z
" id="DejaVuSans-45"/>
    </defs>
    <g style="fill:#333333;" transform="translate(302.159585 299.249667)scale(0.08 -0.08)">
     <use xlink:href="#DejaVuSans-72"/>
     <use x="75.195312" xlink:href="#DejaVuSans-111"/>
     <use x="136.376953" xlink:href="#DejaVuSans-114"/>
     <use x="177.490234" xlink:href="#DejaVuSans-105"/>
     <use x="205.273438" xlink:href="#DejaVuSans-122"/>
     <use x="257.763672" xlink:href="#DejaVuSans-111"/>
     <use x="318.945312" xlink:href="#DejaVuSans-110"/>
     <use x="382.324219" xlink:href="#DejaVuSans-116"/>
     <use x="421.533203" xlink:href="#DejaVuSans-97"/>
     <use x="482.8125" xlink:href="#DejaVuSans-108"/>
     <use x="510.595703" xlink:href="#DejaVuSans-32"/>
     <use x="542.382812" xlink:href="#DejaVuSans-79"/>
     <use x="621.09375" xlink:href="#DejaVuSans-75"/>
     <use x="686.669922" xlink:href="#DejaVuSans-78"/>
     <use x="761.474609" xlink:href="#DejaVuSans-45"/>
     <use x="797.558594" xlink:href="#DejaVuSans-32"/>
     <use x="829.345703" xlink:href="#DejaVuSans-53"/>
     <use x="892.96875" xlink:href="#DejaVuSans-115"/>
    </g>
   </g>
   <g id="text_14">
    <!-- vHIT -->
    <defs>
     <path d="M 2.984375 54.6875 
L 12.5 54.6875 
L 29.59375 8.796875 
L 46.6875 54.6875 
L 56.203125 54.6875 
L 35.6875 0 
L 23.484375 0 
z
" id="DejaVuSans-118"/>
     <path d="M 9.8125 72.90625 
L 19.671875 72.90625 
L 19.671875 0 
L 9.8125 0 
z
" id="DejaVuSans-73"/>
     <path d="M -0.296875 72.90625 
L 61.375 72.90625 
L 61.375 64.59375 
L 35.5 64.59375 
L 35.5 0 
L 25.59375 0 
L 25.59375 64.59375 
L -0.296875 64.59375 
z
" id="DejaVuSans-84"/>
    </defs>
    <g style="fill:#cccccc;" transform="translate(366.271413 243.696452)scale(0.08 -0.08)">
     <use xlink:href="#DejaVuSans-118"/>
     <use x="59.179688" xlink:href="#DejaVuSans-72"/>
     <use x="134.375" xlink:href="#DejaVuSans-73"/>
     <use x="163.867188" xlink:href="#DejaVuSans-84"/>
    </g>
   </g>
  </g>
 </g>
 <defs>
  <clipPath id="p8e2f92b3a0">
   <rect height="301.108636" width="301.108636" x="89.062742" y="9.538824"/>
  </clipPath>
 </defs>
</svg>
